<?xml version="1.0" encoding="UTF-8"?>
<svg width="20px" height="20px" viewBox="0 0 20 20" version="1.1" xmlns="http://www.w3.org/2000/svg" xmlns:xlink="http://www.w3.org/1999/xlink">
    <title>Group 49 Copy</title>
    <desc>Created with Sketch.</desc>
    <defs></defs>
    <g id="Page-1" stroke="none" stroke-width="1" fill="none" fill-rule="evenodd">
        <g id="Home-Icons" transform="translate(-267.000000, -15.000000)" fill="#000000" fill-rule="nonzero">
            <g id="close-icon" transform="translate(261.000000, 9.000000)">
                <g id="Group-49-Copy">
                    <g id="Group-2" transform="translate(7.000000, 7.000000)">
                        <path d="M9,7.58332908 L16.762257,-0.205880233 C17.1521039,-0.597080755 17.7852679,-0.598178093 18.1764685,-0.208331206 C18.567669,0.181515682 18.5687663,0.81467971 18.1789194,1.20588023 L10.4117689,9 L18.1789194,16.7941198 C18.5687663,17.1853203 18.567669,17.8184843 18.1764685,18.2083312 C17.7852679,18.5981781 17.1521039,18.5970808 16.762257,18.2058802 L9,10.4166709 L1.23774297,18.2058802 C0.847896083,18.5970808 0.214732055,18.5981781 -0.176468468,18.2083312 C-0.567668991,17.8184843 -0.568766329,17.1853203 -0.178919441,16.7941198 L7.58823105,9 L-0.178919441,1.20588023 C-0.568766329,0.81467971 -0.567668991,0.181515682 -0.176468468,-0.208331206 C0.214732055,-0.598178093 0.847896083,-0.597080755 1.23774297,-0.205880233 L9,7.58332908 Z" id="Combined-Shape"></path>
                    </g>
                </g>
            </g>
        </g>
    </g>
</svg>
